<svg width="187" height="40" viewBox="0 0 187 40" fill="none" xmlns="http://www.w3.org/2000/svg">
<path d="M30.2257 17.8285C29.7204 18.3369 29.3335 18.9505 29.0924 19.6254C28.8513 20.3005 28.7621 21.0204 28.8311 21.7338L28.8071 21.7098C28.878 22.5497 28.7647 23.3948 28.4752 24.1864C28.1857 24.9778 27.7271 25.6966 27.1312 26.2926C26.5352 26.8885 25.8164 27.3473 25.0248 27.6366C24.2333 27.9261 23.3881 28.0394 22.5484 27.9685L22.5724 27.9925C21.5679 27.899 20.5589 28.1176 19.6831 28.6185C18.8073 29.1194 18.1073 29.8782 17.6787 30.7916C17.25 31.7049 17.1133 32.7281 17.2875 33.722C17.4617 34.7157 17.9381 35.6316 18.6519 36.3446C19.3656 37.0577 20.2819 37.5333 21.2757 37.7065C22.2697 37.8798 23.2928 37.7422 24.2057 37.3128C25.1187 36.8832 25.8768 36.1826 26.3769 35.3064C26.8771 34.4301 27.0948 33.421 27.0004 32.4165L27.0257 32.4405C26.9548 31.6008 27.068 30.7556 27.3575 29.964C27.6469 29.1725 28.1057 28.4537 28.7016 27.8577C29.2976 27.2618 30.0164 26.803 30.8079 26.5137C31.5995 26.2242 32.4445 26.1109 33.2844 26.1818L33.2591 26.1578C34.0796 26.2316 34.9056 26.097 35.6604 25.7666C36.4151 25.4362 37.0743 24.9206 37.5767 24.2677C38.0791 23.6148 38.4087 22.8454 38.5345 22.0313C38.6605 21.217 38.5789 20.3842 38.2973 19.6098C38.0157 18.8356 37.5432 18.1449 36.9236 17.6018C36.304 17.0588 35.5573 16.6809 34.7528 16.5033C33.9483 16.3257 33.1119 16.354 32.3212 16.5856C31.5305 16.8173 30.8112 17.2448 30.2297 17.8285H30.2257Z" fill="#394149"/>
<path d="M20.3899 24.8483L20.3645 24.8243C21.0783 24.8962 21.7991 24.8086 22.4749 24.5678C23.1507 24.327 23.7645 23.9391 24.272 23.4321C24.7793 22.925 25.1679 22.3114 25.4091 21.6358C25.6504 20.9602 25.7385 20.2395 25.6672 19.5257L25.6925 19.5497C25.6216 18.7098 25.7349 17.8647 26.0243 17.0731C26.3137 16.2817 26.7725 15.5629 27.3684 14.9669C27.9644 14.371 28.6832 13.9122 29.4747 13.6229C30.2663 13.3333 31.1113 13.2201 31.9512 13.291L31.9259 13.267C32.9305 13.3614 33.9397 13.1435 34.816 12.6431C35.6924 12.1428 36.3929 11.3843 36.8223 10.4711C37.2516 9.55797 37.3888 8.5346 37.2152 7.54059C37.0416 6.54657 36.5656 5.63033 35.852 4.91681C35.1385 4.20331 34.2223 3.72725 33.2283 3.55363C32.2343 3.37999 31.2109 3.5172 30.2977 3.94656C29.3845 4.37591 28.6261 5.07651 28.1257 5.95279C27.6253 6.82905 27.4075 7.83835 27.5019 8.84299L27.4779 8.81765C27.5489 9.65751 27.4359 10.5028 27.1465 11.2944C26.8572 12.086 26.3984 12.8049 25.8025 13.401C25.2065 13.9969 24.4876 14.4557 23.696 14.745C22.9043 15.0343 22.0591 15.1474 21.2192 15.0763L21.2432 15.1017C20.5295 15.0298 19.8085 15.1174 19.1328 15.3582C18.4571 15.5989 17.8432 15.9869 17.3357 16.4939C16.8283 17.001 16.4399 17.6146 16.1985 18.2902C15.9573 18.9658 15.8692 19.6865 15.9405 20.4003L15.9165 20.3763C15.9872 21.2161 15.8737 22.0611 15.5843 22.8526C15.2947 23.6439 14.836 24.3627 14.2401 24.9586C13.6442 25.5545 12.9255 26.0131 12.1341 26.3027C11.3427 26.5922 10.4976 26.7057 9.65787 26.635L9.68187 26.659C8.67723 26.5646 7.66793 26.7825 6.79165 27.2829C5.91538 27.7833 5.21478 28.5417 4.78544 29.4549C4.35608 30.3681 4.21885 31.3914 4.39249 32.3854C4.56613 33.3794 5.04218 34.2957 5.75569 35.0091C6.46921 35.7227 7.38545 36.1987 8.37947 36.3723C9.37348 36.5459 10.3969 36.4087 11.31 35.9794C12.2232 35.5501 12.9817 34.8495 13.482 33.9733C13.9824 33.0969 14.2003 32.0877 14.1059 31.083L14.1312 31.107C14.0603 30.2671 14.1736 29.4221 14.4631 28.6305C14.7524 27.839 15.2112 27.1202 15.8071 26.5242C16.4031 25.9283 17.1219 25.4695 17.9133 25.1802C18.7049 24.8907 19.55 24.7774 20.3899 24.8483Z" fill="#006B6A"/>
<path d="M11.4536 22.1721C11.959 21.6638 12.3459 21.0502 12.5867 20.3751C12.8276 19.7001 12.9164 18.9801 12.8469 18.2667L12.8723 18.2907C12.8013 17.4507 12.9146 16.6053 13.2042 15.8135C13.4938 15.0218 13.9528 14.3029 14.5491 13.7069C15.1453 13.1109 15.8644 12.6523 16.6563 12.363C17.4481 12.0737 18.2936 11.9608 19.1336 12.0321L19.1083 12.0081C20.1125 12.1022 21.1215 11.8842 21.9974 11.3839C22.8732 10.8836 23.5733 10.1253 24.0025 9.21239C24.4316 8.29951 24.5687 7.27651 24.3951 6.28287C24.2215 5.28923 23.7455 4.37334 23.0323 3.66008C22.3191 2.94683 21.4031 2.47094 20.4095 2.29731C19.4159 2.12367 18.3928 2.26076 17.48 2.68986C16.5671 3.11895 15.8088 3.81918 15.3085 4.69504C14.8081 5.57091 14.5901 6.57979 14.6843 7.58408L14.6603 7.56008C14.7312 8.39988 14.6179 9.24504 14.3284 10.0366C14.0389 10.8281 13.5803 11.5469 12.9844 12.1428C12.3884 12.7388 11.6696 13.1975 10.8781 13.4869C10.0866 13.7763 9.24142 13.8897 8.40162 13.8187L8.42562 13.8427C7.60504 13.7691 6.77916 13.9039 6.02452 14.2345C5.26988 14.565 4.61088 15.0807 4.1086 15.7338C3.60632 16.3867 3.27702 17.1561 3.15118 17.9702C3.02535 18.7845 3.10707 19.6173 3.38876 20.3914C3.67046 21.1657 4.14303 21.8562 4.76267 22.3991C5.38231 22.9422 6.12898 23.3199 6.93348 23.4975C7.73798 23.675 8.57428 23.6466 9.36491 23.415C10.1555 23.1833 10.8749 22.7558 11.4563 22.1721H11.4536Z" fill="#394149"/>
<path d="M52.7568 8.87305H56.7168V28.1437H52.7568V8.87305Z" fill="#394149"/>
<path d="M58.9582 21.5455C58.9527 20.1607 59.3583 18.8052 60.1237 17.6511C60.889 16.4969 61.9797 15.5959 63.2575 15.0621C64.5354 14.5283 65.9429 14.3857 67.3018 14.6525C68.6607 14.9193 69.9099 15.5833 70.8911 16.5607C71.8723 17.5379 72.5414 18.7844 72.8137 20.1423C73.0859 21.5001 72.949 22.9083 72.4203 24.1883C71.8917 25.4681 70.995 26.5625 69.8439 27.3324C68.6927 28.1024 67.3391 28.5135 65.9542 28.5135C65.035 28.524 64.1229 28.3511 63.2711 28.0049C62.4194 27.6588 61.6453 27.1464 60.9939 26.4977C60.3425 25.8489 59.827 25.0768 59.4775 24.2265C59.1279 23.3763 58.9514 22.4648 58.9582 21.5455ZM68.9902 21.5455C68.9737 20.9485 68.7815 20.3697 68.4379 19.8813C68.0942 19.3931 67.6142 19.0168 67.0579 18.7999C66.5015 18.5828 65.8937 18.5345 65.3101 18.6612C64.7265 18.7879 64.1931 19.0836 63.7767 19.5117C63.3605 19.9397 63.0794 20.4811 62.9691 21.068C62.8587 21.6548 62.9237 22.2612 63.1561 22.8113C63.3885 23.3615 63.7778 23.8308 64.2754 24.1608C64.7731 24.4908 65.3571 24.6668 65.9542 24.6668C66.3631 24.6777 66.7699 24.6037 67.149 24.4496C67.5279 24.2955 67.8709 24.0645 68.1561 23.7713C68.4413 23.478 68.6627 23.1288 68.8062 22.7457C68.9498 22.3627 69.0125 21.954 68.9902 21.5455Z" fill="#394149"/>
<path d="M88.7332 14.9452V27.4786C88.7332 31.9132 85.2745 33.7879 81.7639 33.7879C80.5279 33.8804 79.2901 33.6307 78.1865 33.0663C77.0831 32.5018 76.1563 31.6443 75.5079 30.5879L78.8865 28.6346C79.1591 29.1852 79.5933 29.6395 80.1311 29.9367C80.6689 30.2338 81.2847 30.3596 81.8959 30.2972C82.2865 30.3514 82.6844 30.317 83.06 30.1966C83.4355 30.0762 83.7792 29.8728 84.0656 29.6018C84.352 29.3306 84.5737 28.9986 84.7145 28.63C84.8552 28.2616 84.9112 27.8663 84.8785 27.4732V26.2666C84.4148 26.8339 83.8247 27.2847 83.1552 27.5827C82.4857 27.8807 81.7559 28.0176 81.0239 27.9826C79.2823 27.9276 77.6304 27.1972 76.4179 25.9458C75.2053 24.6944 74.5273 23.0203 74.5273 21.2779C74.5273 19.5355 75.2053 17.8614 76.4179 16.61C77.6304 15.3586 79.2823 14.6282 81.0239 14.5732C81.7559 14.5382 82.4857 14.6751 83.1552 14.9731C83.8247 15.2711 84.4148 15.7219 84.8785 16.2892V14.9426L88.7332 14.9452ZM84.8799 21.2799C84.9065 20.6418 84.7415 20.0102 84.4061 19.4666C84.0708 18.9228 83.5804 18.492 82.9981 18.2295C82.4159 17.9668 81.7684 17.8846 81.1389 17.9931C80.5095 18.1016 79.9269 18.396 79.4661 18.8386C79.0055 19.281 78.6877 19.8511 78.5537 20.4756C78.4199 21.1002 78.4759 21.7506 78.7148 22.343C78.9536 22.9354 79.3643 23.4428 79.8939 23.7999C80.4235 24.157 81.0479 24.3474 81.6865 24.3466C82.1027 24.3756 82.5201 24.3172 82.9123 24.1751C83.3044 24.033 83.6624 23.8102 83.9632 23.5214C84.264 23.2324 84.5011 22.8838 84.6589 22.4976C84.8168 22.1116 84.8921 21.6968 84.8799 21.2799Z" fill="#394149"/>
<path d="M90.9758 21.5455C90.9703 20.1607 91.3758 18.8052 92.1412 17.6511C92.9066 16.4969 93.9972 15.5959 95.2751 15.0621C96.553 14.5283 97.9604 14.3857 99.3194 14.6525C100.678 14.9193 101.928 15.5833 102.909 16.5607C103.89 17.5379 104.559 18.7844 104.831 20.1423C105.104 21.5001 104.967 22.9083 104.438 24.1883C103.909 25.4681 103.013 26.5625 101.862 27.3324C100.71 28.1024 99.3567 28.5135 97.9718 28.5135C97.0526 28.524 96.1403 28.3511 95.2887 28.0049C94.437 27.6588 93.6628 27.1464 93.0115 26.4977C92.36 25.8489 91.8446 25.0768 91.4951 24.2265C91.1455 23.3763 90.969 22.4648 90.9758 21.5455ZM101.008 21.5455C100.991 20.9485 100.799 20.3697 100.456 19.8813C100.112 19.3931 99.6318 19.0168 99.0755 18.7999C98.5191 18.5828 97.9111 18.5345 97.3276 18.6612C96.744 18.7879 96.2107 19.0836 95.7943 19.5117C95.378 19.9397 95.097 20.4811 94.9866 21.068C94.8762 21.6548 94.9412 22.2612 95.1736 22.8113C95.406 23.3615 95.7954 23.8308 96.293 24.1608C96.7907 24.4908 97.3746 24.6668 97.9718 24.6668C98.3807 24.6777 98.7875 24.6037 99.1664 24.4496C99.5455 24.2955 99.8884 24.0645 100.174 23.7713C100.459 23.478 100.68 23.1288 100.824 22.7457C100.967 22.3627 101.03 21.954 101.008 21.5455Z" fill="#394149"/>
<path d="M106.815 11.4077C106.815 10.9378 106.955 10.4784 107.216 10.0877C107.477 9.69698 107.848 9.39243 108.282 9.21261C108.716 9.03277 109.194 8.98571 109.655 9.07739C110.116 9.16907 110.539 9.39537 110.872 9.72766C111.204 10.0599 111.43 10.4833 111.522 10.9442C111.613 11.4051 111.566 11.8828 111.387 12.317C111.207 12.7512 110.902 13.1222 110.511 13.3833C110.121 13.6444 109.661 13.7837 109.191 13.7837C108.563 13.7775 107.962 13.5252 107.518 13.0809C107.074 12.6367 106.822 12.036 106.815 11.4077ZM107.215 14.9451H111.177V28.1451H107.21L107.215 14.9451Z" fill="#394149"/>
<path d="M128.275 21.545C128.32 22.4174 128.193 23.2902 127.9 24.1133C127.608 24.9364 127.155 25.6934 126.569 26.341C125.983 26.9885 125.274 27.5138 124.484 27.8866C123.694 28.2593 122.838 28.4722 121.965 28.513C121.231 28.553 120.498 28.4293 119.818 28.1508C119.138 27.8721 118.528 27.4457 118.033 26.9024V33.4237H114.073V14.945H118.033V16.185C118.528 15.6421 119.138 15.216 119.818 14.9377C120.498 14.6593 121.232 14.5357 121.965 14.5757C122.838 14.6164 123.694 14.8292 124.484 15.202C125.275 15.5748 125.983 16.1001 126.57 16.7478C127.156 17.3956 127.609 18.1529 127.901 18.9762C128.194 19.7994 128.321 20.6725 128.275 21.545ZM124.315 21.545C124.299 20.9273 124.102 20.3278 123.747 19.8216C123.393 19.3154 122.897 18.925 122.322 18.6994C121.746 18.4737 121.117 18.4226 120.513 18.5528C119.909 18.6828 119.357 18.9881 118.925 19.4305C118.494 19.873 118.202 20.4328 118.088 21.0401C117.973 21.6473 118.04 22.2748 118.28 22.8442C118.52 23.4137 118.923 23.8996 119.438 24.2413C119.952 24.5829 120.557 24.7652 121.175 24.765C121.599 24.784 122.022 24.7129 122.417 24.5566C122.812 24.4005 123.17 24.1625 123.466 23.8585C123.762 23.5544 123.991 23.1912 124.138 22.7925C124.284 22.3938 124.344 21.9686 124.315 21.545Z" fill="#394149"/>
<path d="M140.494 24.1836C140.494 27.2196 137.856 28.513 135.005 28.513C133.853 28.6172 132.697 28.3738 131.685 27.8136C130.673 27.2536 129.852 26.403 129.329 25.3716L132.76 23.4183C132.899 23.895 133.197 24.3098 133.604 24.5931C134.012 24.8766 134.505 25.0116 135 24.9756C135.949 24.9756 136.425 24.685 136.425 24.1583C136.425 22.705 129.93 23.4716 129.93 18.905C129.93 16.0263 132.36 14.5756 135.105 14.5756C136.137 14.543 137.158 14.7878 138.064 15.2844C138.969 15.7812 139.725 16.5116 140.252 17.3996L136.873 19.221C136.725 18.8752 136.478 18.5807 136.164 18.3742C135.849 18.1676 135.481 18.0583 135.105 18.0596C134.418 18.0596 133.996 18.3263 133.996 18.7983C134.001 20.3036 140.494 19.2996 140.494 24.1836Z" fill="#394149"/>
<path d="M154.96 14.9453V28.1453H151V26.904C150.542 27.4517 149.962 27.8833 149.306 28.1633C148.65 28.4433 147.938 28.5637 147.226 28.5146C144.56 28.5146 142.293 26.6146 142.293 23.048V14.9453H146.253V22.468C146.22 22.7824 146.256 23.1002 146.358 23.3993C146.46 23.6985 146.626 23.9718 146.845 24.2002C147.064 24.4286 147.329 24.6066 147.624 24.722C147.917 24.8373 148.233 24.8872 148.549 24.868C150.001 24.868 151.004 24.024 151.004 22.1493V14.9493L154.96 14.9453Z" fill="#394149"/>
<path d="M177.667 20.0405V28.1445H173.707V20.3831C173.707 19.0631 173.073 18.2191 171.807 18.2191C170.487 18.2191 169.747 19.1431 169.747 20.7005V28.1445H165.788V20.3831C165.788 19.0631 165.155 18.2191 163.887 18.2191C162.567 18.2191 161.828 19.1431 161.828 20.7005V28.1445H157.868V14.9445H161.828V16.1578C162.239 15.6195 162.777 15.1926 163.395 14.9162C164.013 14.6397 164.691 14.5225 165.365 14.5751C166.043 14.5419 166.717 14.685 167.324 14.9902C167.929 15.2953 168.445 15.7523 168.823 16.3165C169.261 15.7262 169.843 15.2569 170.512 14.9523C171.182 14.6478 171.918 14.5181 172.651 14.5751C175.682 14.5765 177.667 16.7405 177.667 20.0405Z" fill="#394149"/>
<path d="M181.016 14.8641C182.638 14.8641 183.954 13.5484 183.954 11.9255C183.954 10.3025 182.638 8.98682 181.016 8.98682C179.393 8.98682 178.077 10.3025 178.077 11.9255C178.077 13.5484 179.393 14.8641 181.016 14.8641Z" fill="#394149"/>
</svg>
